# xmcd
#
# Track frame offsets: 
#        150
#        18420
#        35565
#        54107
#        73277
#        92790
#        107187
#        123587
#        146365
#        163142
#        170417
#
# Disc length: 2543 seconds
#
# Revision: 0
# Processed by: cddbd v1.5.2PL0 Copyright (c) Steve Scherf et al.
# Submitted via: ExactAudioCopy v1.0b3
#
DISCID=9809ed0b
DTITLE=Sinergy - Suicide By My Side
DYEAR=2002
DGENRE=Metal
TTITLE0=I Spit On Your Grave
TTITLE1=The Sin Trade
TTITLE2=Violated
TTITLE3=Me, Myself, My Enemy
TTITLE4=Written In Stone
TTITLE5=Nowhere For No One
TTITLE6=Passage To The Fourth World
TTITLE7=Shadow Island
TTITLE8=Suicide By My Side
TTITLE9=Remembrance
TTITLE10=The Number Of The Beast
EXTD=
EXTT0=
EXTT1=
EXTT2=
EXTT3=
EXTT4=
EXTT5=
EXTT6=
EXTT7=
EXTT8=
EXTT9=
EXTT10=
PLAYORDER=
